<svg width="16" height="17" viewBox="0 0 16 17" fill="none" xmlns="http://www.w3.org/2000/svg">
<path d="M12 1.83331V3.16665M4 1.83331V3.16665" stroke="#606060" stroke-linecap="round" stroke-linejoin="round"/>
<path d="M7.99667 9.16669H8.00267M7.99667 11.8334H8.00267M10.6603 9.16669H10.6663M5.33301 9.16669H5.33899M5.33301 11.8334H5.33899" stroke="#606060" stroke-linecap="round" stroke-linejoin="round"/>
<path d="M2.33301 5.83331H13.6663" stroke="#606060" stroke-linecap="round" stroke-linejoin="round"/>
<path d="M1.66699 8.66213C1.66699 5.75729 1.66699 4.30485 2.50174 3.40243C3.33649 2.5 4.67999 2.5 7.36699 2.5H8.63366C11.3207 2.5 12.6642 2.5 13.4989 3.40243C14.3337 4.30485 14.3337 5.75729 14.3337 8.66213V9.00453C14.3337 11.9094 14.3337 13.3618 13.4989 14.2643C12.6642 15.1667 11.3207 15.1667 8.63366 15.1667H7.36699C4.67999 15.1667 3.33649 15.1667 2.50174 14.2643C1.66699 13.3618 1.66699 11.9094 1.66699 9.00453V8.66213Z" stroke="#606060" stroke-linecap="round" stroke-linejoin="round"/>
<path d="M2 5.83331H14" stroke="#606060" stroke-linecap="round" stroke-linejoin="round"/>
</svg>
