<svg width="28" height="29" viewBox="0 0 28 29" fill="none" xmlns="http://www.w3.org/2000/svg">
<path d="M4.10455 12.5235C3.65181 11.2704 3.42545 10.6439 3.52198 10.2425C3.62755 9.80336 3.93983 9.46102 4.33898 9.34683C4.70392 9.24241 5.27162 9.49473 6.40702 9.99936C7.41128 10.4457 7.91342 10.6689 8.3852 10.6565C8.90466 10.6428 9.40436 10.4345 9.80186 10.0659C10.1629 9.73114 10.405 9.19769 10.8893 8.13079L11.9567 5.7795C12.8483 3.81542 13.294 2.83337 14 2.83337C14.7059 2.83337 15.1517 3.81542 16.0433 5.7795L17.1107 8.13079C17.595 9.19769 17.8372 9.73114 18.1981 10.0659C18.5956 10.4345 19.0953 10.6428 19.6148 10.6565C20.0866 10.6689 20.5887 10.4457 21.593 9.99936C22.7284 9.49473 23.2961 9.24241 23.661 9.34683C24.0602 9.46102 24.3725 9.80336 24.4781 10.2425C24.5745 10.6439 24.3482 11.2704 23.8954 12.5234L21.9494 17.9093C21.1169 20.2132 20.7007 21.3652 19.8296 22.0159C18.9586 22.6667 17.833 22.6667 15.5818 22.6667H12.4182C10.167 22.6667 9.0414 22.6667 8.17034 22.0159C7.29929 21.3652 6.88306 20.2132 6.05059 17.9093L4.10455 12.5235Z" stroke="#606060" stroke-width="1.5"/>
<path d="M14 16.8334H14.0105" stroke="#606060" stroke-width="2" stroke-linecap="round" stroke-linejoin="round"/>
<path d="M8.1665 26.1666H19.8332" stroke="#606060" stroke-width="1.5" stroke-linecap="round"/>
</svg>
