<svg width="22" height="22" viewBox="0 0 22 22" fill="none" xmlns="http://www.w3.org/2000/svg">
<path d="M12.9006 3.5617C13.5837 2.82161 13.9252 2.45157 14.2881 2.23573C15.1638 1.7149 16.2422 1.69871 17.1325 2.193C17.5015 2.39786 17.8535 2.75748 18.5576 3.47674C19.2617 4.19599 19.6138 4.55562 19.8143 4.93256C20.2982 5.84207 20.2823 6.9436 19.7724 7.83818C19.5612 8.20894 19.1989 8.55784 18.4745 9.25562L9.85439 17.5581C8.48148 18.8805 7.79501 19.5417 6.93706 19.8768C6.07912 20.2119 5.13594 20.1872 3.24959 20.1379L2.99294 20.1312C2.41868 20.1162 2.13154 20.1087 1.96463 19.9192C1.79772 19.7298 1.82051 19.4373 1.86608 18.8524L1.89083 18.5348C2.0191 16.8882 2.08323 16.0651 2.40474 15.3251C2.72625 14.585 3.28083 13.9842 4.38999 12.7825L12.9006 3.5617Z" stroke="#606060" stroke-width="1.5" stroke-linejoin="round"/>
<path d="M11.917 3.66663L18.3337 10.0833" stroke="#606060" stroke-width="1.5" stroke-linejoin="round"/>
</svg>
