<svg width="28" height="25" viewBox="0 0 28 25" fill="none" xmlns="http://www.w3.org/2000/svg">
<path d="M14 18.5V15.5" stroke="#606060" stroke-width="1.5" stroke-linecap="round"/>
<path d="M4.35139 13.7135C3.99837 11.4162 3.82186 10.2676 4.25617 9.24938C4.69047 8.23112 5.65403 7.53443 7.58114 6.14106L9.02099 5.1C11.4183 3.36667 12.6169 2.5 14 2.5C15.383 2.5 16.5817 3.36667 18.979 5.1L20.4188 6.14106C22.346 7.53443 23.3095 8.23112 23.7438 9.24938C24.1781 10.2676 24.0016 11.4162 23.6486 13.7135L23.3476 15.6724C22.8471 18.9289 22.5969 20.5572 21.429 21.5286C20.2611 22.5 18.5536 22.5 15.1388 22.5H12.8612C9.44634 22.5 7.73891 22.5 6.571 21.5286C5.40309 20.5572 5.15287 18.9289 4.65243 15.6724L4.35139 13.7135Z" stroke="#606060" stroke-width="1.5" stroke-linejoin="round"/>
</svg>
