<svg width="16" height="16" viewBox="0 0 16 16" fill="none" xmlns="http://www.w3.org/2000/svg">
<path fill-rule="evenodd" clip-rule="evenodd" d="M7.54665 14.6693H4.28932C2.65998 14.6693 1.33398 13.3433 1.33398 11.7126V4.29327C1.33398 2.6626 2.65998 1.33594 4.28932 1.33594H7.53932C9.16998 1.33594 10.4967 2.6626 10.4967 4.29327V4.9146C10.4967 5.1906 10.2727 5.4146 9.99665 5.4146C9.72065 5.4146 9.49665 5.1906 9.49665 4.9146V4.29327C9.49665 3.21327 8.61865 2.33594 7.53932 2.33594H4.28932C3.21132 2.33594 2.33398 3.21327 2.33398 4.29327V11.7126C2.33398 12.7919 3.21132 13.6693 4.28932 13.6693H7.54665C8.62132 13.6693 9.49665 12.7946 9.49665 11.7199V11.0913C9.49665 10.8153 9.72065 10.5913 9.99665 10.5913C10.2727 10.5913 10.4967 10.8153 10.4967 11.0913V11.7199C10.4967 13.3466 9.17265 14.6693 7.54665 14.6693Z" fill="#BA1A1A"/>
<mask id="mask0_2717_2697" style="mask-type:luminance" maskUnits="userSpaceOnUse" x="5" y="7" width="11" height="2">
<path fill-rule="evenodd" clip-rule="evenodd" d="M5.99805 7.5H15.0253V8.5H5.99805V7.5Z" fill="white"/>
</mask>
<g mask="url(#mask0_2717_2697)">
<path fill-rule="evenodd" clip-rule="evenodd" d="M14.5254 8.5H6.49805C6.22205 8.5 5.99805 8.276 5.99805 8C5.99805 7.724 6.22205 7.5 6.49805 7.5H14.5254C14.8014 7.5 15.0254 7.724 15.0254 8C15.0254 8.276 14.8014 8.5 14.5254 8.5Z" fill="#BA1A1A"/>
</g>
<mask id="mask1_2717_2697" style="mask-type:luminance" maskUnits="userSpaceOnUse" x="12" y="5" width="4" height="6">
<path fill-rule="evenodd" clip-rule="evenodd" d="M12.0742 5.5625H15.0258V10.4497H12.0742V5.5625Z" fill="white"/>
</mask>
<g mask="url(#mask1_2717_2697)">
<path fill-rule="evenodd" clip-rule="evenodd" d="M12.5741 10.4497C12.4461 10.4497 12.3174 10.401 12.2201 10.3023C12.0254 10.1063 12.0261 9.79033 12.2214 9.59567L13.8174 8.00567L12.2214 6.41633C12.0261 6.22167 12.0247 5.90567 12.2201 5.70967C12.4147 5.51367 12.7307 5.51367 12.9267 5.70833L14.8787 7.65167C14.9734 7.745 15.0261 7.873 15.0261 8.00567C15.0261 8.13833 14.9734 8.26633 14.8787 8.35967L12.9267 10.3037C12.8294 10.401 12.7014 10.4497 12.5741 10.4497Z" fill="#BA1A1A"/>
</g>
</svg>
