<svg width="52" height="52" viewBox="0 0 52 52" fill="none" xmlns="http://www.w3.org/2000/svg">
<path d="M2.31699 26.0003C2.31699 12.9204 12.9204 2.31699 26.0003 2.31699C39.0804 2.31699 49.6837 12.9204 49.6837 26.0003C49.6837 39.0804 39.0804 49.6837 26.0003 49.6837C12.9204 49.6837 2.31699 39.0804 2.31699 26.0003Z" fill="#C4C4C4" stroke="white" stroke-width="2.8"/>
<path d="M18.3887 20.1663C18.3887 15.9758 21.79 12.583 25.9802 12.583C30.1707 12.583 33.572 15.9758 33.572 20.1663C33.572 24.3568 30.1707 27.7497 25.9802 27.7497C21.79 27.7497 18.3887 24.3568 18.3887 20.1663Z" fill="#E3E3E3"/>
<path d="M14.2489 36.4435C20.341 30.0807 31.5382 29.7342 37.7621 36.4542L38.1891 36.881C38.5281 37.22 38.7132 37.6832 38.701 38.1624C38.6891 38.6417 38.481 39.0951 38.1254 39.4166C34.9192 42.3158 30.6641 44.0837 26.0002 44.0837C21.3364 44.0837 17.0813 42.3158 13.8751 39.4166C13.5195 39.0951 13.3114 38.6417 13.2994 38.1624C13.2873 37.6832 13.4724 37.22 13.8114 36.881L14.2489 36.4435Z" fill="#E3E3E3"/>
</svg>
