<svg width="28" height="28" viewBox="0 0 28 28" fill="none" xmlns="http://www.w3.org/2000/svg">
<path d="M18.0837 14C18.0837 16.2551 16.2555 18.0833 14.0003 18.0833C11.7452 18.0833 9.91699 16.2551 9.91699 14C9.91699 11.7448 11.7452 9.91663 14.0003 9.91663C16.2555 9.91663 18.0837 11.7448 18.0837 14Z" stroke="#606060" stroke-width="1.5"/>
<path d="M24.2554 10.6773C25.1961 12.2988 25.6663 13.1094 25.6663 14C25.6663 14.8906 25.1961 15.7012 24.2554 17.3227L22.0111 21.1911C21.0741 22.806 20.6057 23.6136 19.8352 24.0568C19.0649 24.5 18.1299 24.5 16.2599 24.5H11.7395C9.86947 24.5 8.93447 24.5 8.16409 24.0568C7.3937 23.6136 6.92523 22.806 5.9883 21.1911L3.744 17.3227C2.80334 15.7012 2.33301 14.8906 2.33301 14C2.33301 13.1094 2.80334 12.2988 3.744 10.6773L5.9883 6.80891C6.92523 5.19395 7.3937 4.38648 8.16409 3.94324C8.93447 3.5 9.86947 3.5 11.7395 3.5H16.2599C18.1299 3.5 19.0649 3.5 19.8352 3.94324C20.6057 4.38648 21.0741 5.19396 22.0111 6.80892L24.2554 10.6773Z" stroke="#606060" stroke-width="1.5"/>
</svg>
